<?xml version="1.0" encoding="utf-8"?>
<!-- Generator: Adobe Illustrator 27.1.0, SVG Export Plug-In . SVG Version: 6.00 Build 0)  -->
<svg version="1.1" id="Ebene_1" xmlns="http://www.w3.org/2000/svg" xmlns:xlink="http://www.w3.org/1999/xlink" x="0px" y="0px"
	 viewBox="0 0 500 500" style="enable-background:new 0 0 500 500;" xml:space="preserve">
<style type="text/css">
	.st0{fill:#060605;}
</style>
<path class="st0" d="M183.3,135.2h18c3.4,0,6.2,1.1,8.4,3.3s3.3,4.9,3.3,8.1c0,1.4-0.2,2.7-0.6,3.9c-0.4,1.2-0.9,2.2-1.5,2.9
	s-1.2,1.4-1.8,1.9s-1.1,0.9-1.5,1.1l-0.6,0.3l7.3,13.1h-7.8l-6.6-12.1h-9.2v12.1h-7.3L183.3,135.2L183.3,135.2z M204.4,143.2
	c-0.9-0.9-2-1.3-3.3-1.3h-10.4v9.1h10.4c1.3,0,2.4-0.4,3.3-1.3s1.3-1.9,1.3-3.2S205.3,144.1,204.4,143.2"/>
<path class="st0" d="M237,135.2c3.5,0,6.4,1.1,8.7,3.3s3.5,5,3.5,8.3s-1.2,6-3.5,8.3c-2.3,2.2-5.2,3.3-8.7,3.3h-11.4v11.3h-7.3
	v-34.5L237,135.2L237,135.2z M225.6,141.9v9.9h11.1c1.5,0,2.7-0.5,3.7-1.4s1.5-2.1,1.5-3.5s-0.5-2.5-1.5-3.5s-2.2-1.4-3.7-1.4h-11.1
	V141.9z"/>
<polygon class="st0" points="281.4,180.1 281.4,186.8 269.6,186.8 269.6,214.7 262.3,214.7 262.3,186.8 250.4,186.8 250.4,180.1 "/>
<path class="st0" d="M316.1,224.6h-6.6v0.7h3.4c1.7,0,2.7,0.9,2.7,2.4c0,1.4-0.9,2.2-2.4,2.2h-3.7v0.7h3.8c1.8,0,3-1.1,3-2.8
	c0-1.2-0.5-2.1-1.5-2.6l0,0h1.3L316.1,224.6L316.1,224.6z M315.6,236c0,1.6-1.2,2.7-2.8,2.7s-2.8-1.1-2.8-2.7c0-1.6,1.1-2.8,2.8-2.8
	S315.6,234.4,315.6,236 M316.1,232.5h-6.6v0.6h1.4l0,0c-0.9,0.5-1.5,1.5-1.5,2.8c0,2,1.4,3.4,3.5,3.4s3.5-1.4,3.5-3.4
	c0-1.3-0.6-2.3-1.5-2.8l0,0h1.4v-0.6H316.1z M315.6,244.5c0,1.6-1.2,2.7-2.8,2.7s-2.8-1.1-2.8-2.7c0-1.6,1.1-2.8,2.8-2.8
	S315.6,242.8,315.6,244.5 M316.1,241h-9.9v0.7h4.6l0,0c-0.9,0.5-1.4,1.5-1.4,2.8c0,2,1.4,3.4,3.5,3.4s3.5-1.4,3.5-3.4
	c0-1.3-0.6-2.3-1.5-2.8l0,0h1.4V241H316.1z M309.4,252.1c0,1.2,0.6,2.1,1.5,2.6l0,0h-1.4v0.6h6.6v-0.7h-3.4c-1.7,0-2.7-0.9-2.7-2.4
	c0-1.4,0.9-2.2,2.4-2.2h3.7v-0.7h-3.8C310.5,249.3,309.4,250.4,309.4,252.1 M315.6,260.8c0,1.6-1.2,2.7-2.8,2.7s-2.8-1.1-2.8-2.7
	s1.1-2.8,2.8-2.8S315.6,259.2,315.6,260.8 M316.1,257.4h-6.6v0.6h1.4l0,0c-0.9,0.5-1.5,1.5-1.5,2.8c0,2,1.4,3.4,3.5,3.4
	s3.5-1.4,3.5-3.4c0-1.3-0.6-2.3-1.5-2.8l0,0h1.4v-0.6H316.1z M316.1,265.3h-0.7v5.8h-8.7v0.8h9.4L316.1,265.3L316.1,265.3z"/>
<path class="st0" d="M290.7,227.4c0,1.2,0.6,2.1,1.5,2.6l0,0h-1.4v0.6h6.6v-0.7H294c-1.7,0-2.7-0.9-2.7-2.4c0-1.4,0.9-2.2,2.4-2.2
	h3.7v-0.7h-3.8C291.9,224.5,290.7,225.6,290.7,227.4 M290.7,232.8c0,1.1,0.5,1.8,1.4,2.2l0,0h-1.3v0.6h6.6v-0.7h-3.2
	c-1.9,0-2.9-0.7-2.9-2.1c0-0.4,0.1-0.7,0.3-1l0,0H291C290.9,232,290.7,232.4,290.7,232.8 M291.4,240.5c0-1.5,0.9-2.6,2.4-2.7v5.4
	C292.4,243.1,291.4,242,291.4,240.5 M294.4,237.2H294c-1.9,0-3.2,1.3-3.2,3.4c0,2,1.4,3.4,3.5,3.4s3.5-1.5,3.5-3.8
	c0-1-0.3-2-0.9-2.6H296l0,0c0.7,0.7,1,1.5,1,2.5c0,1.8-1,3-2.6,3V237.2z M296.6,245L296.6,245c0.3,0.3,0.4,0.7,0.4,1
	c0,0.8-0.6,1.3-1.5,1.3h-4V245h-0.6v2.3h-1.8v0.6l1.8,0.1v1.3h0.6V248h4c1.3,0,2.1-0.7,2.1-1.9c0-0.5-0.1-0.9-0.3-1.1H296.6
	L296.6,245z M297.5,250.5h-6.6v0.7h3.4c1.7,0,2.7,0.9,2.7,2.4c0,1.4-0.9,2.2-2.4,2.2h-3.7v0.7h3.8c1.8,0,3-1.1,3-2.8
	c0-1.2-0.5-2.1-1.5-2.6l0,0h1.3L297.5,250.5L297.5,250.5z M297,261.9c0,1.6-1.2,2.7-2.8,2.7s-2.8-1.1-2.8-2.7s1.1-2.8,2.8-2.8
	S297,260.2,297,261.9 M297.5,258.4h-6.6v0.6h1.4l0,0c-0.9,0.5-1.5,1.5-1.5,2.8c0,2,1.4,3.4,3.5,3.4s3.5-1.4,3.5-3.4
	c0-1.3-0.6-2.3-1.5-2.8l0,0h1.4v-0.6H297.5z M297.5,266.9h-9.9v0.7h9.9V266.9z M290.7,271.6c0,1.4,0.8,2.4,2,2.4
	c1.1,0,1.6-0.6,1.7-2.4c0.1-1.5,0.4-1.9,1.2-1.9c0.8,0,1.3,0.7,1.3,1.8c0,1.1-0.3,1.9-0.9,2.5l0,0h0.8c0.5-0.6,0.8-1.4,0.8-2.5
	c0-1.5-0.8-2.5-2-2.5s-1.8,0.7-1.9,2.5c-0.1,1.4-0.4,1.8-1,1.8c-0.8,0-1.3-0.7-1.3-1.7s0.2-1.7,0.7-2.1l0,0h-0.8
	C291,269.9,290.7,270.7,290.7,271.6 M290.7,275.9c0,1.1,0.5,1.8,1.4,2.2l0,0h-1.3v0.6h6.6V278h-3.2c-1.9,0-2.9-0.7-2.9-2.1
	c0-0.4,0.1-0.7,0.3-1l0,0H291C290.9,275.1,290.7,275.4,290.7,275.9 M291.4,283.6c0-1.5,0.9-2.6,2.4-2.7v5.4
	C292.4,286.1,291.4,285.1,291.4,283.6 M294.4,280.3H294c-1.9,0-3.2,1.3-3.2,3.4c0,2,1.4,3.4,3.5,3.4s3.5-1.5,3.5-3.8
	c0-1-0.3-2-0.9-2.6H296l0,0c0.7,0.7,1,1.5,1,2.5c0,1.8-1,3-2.6,3V280.3z M290.7,290.6c0,1.4,0.8,2.4,2,2.4c1.1,0,1.6-0.6,1.7-2.4
	c0.1-1.5,0.4-1.9,1.2-1.9c0.8,0,1.3,0.7,1.3,1.8c0,1.1-0.3,1.9-0.9,2.5l0,0h0.8c0.5-0.6,0.8-1.4,0.8-2.5c0-1.5-0.8-2.5-2-2.5
	s-1.8,0.7-1.9,2.5c-0.1,1.4-0.4,1.8-1,1.8c-0.8,0-1.3-0.7-1.3-1.7s0.2-1.7,0.7-2.1l0,0h-0.8C291,288.9,290.7,289.7,290.7,290.6
	 M297.5,294.7h-6.6v0.7h6.6V294.7z M288.2,295c0,0.3,0.2,0.5,0.5,0.5s0.5-0.2,0.5-0.5s-0.2-0.5-0.5-0.5
	C288.5,294.5,288.2,294.7,288.2,295 M297,300.8c0,1.6-1.2,2.7-2.8,2.7s-2.8-1.1-2.8-2.7s1.1-2.8,2.8-2.8S297,299.2,297,300.8
	 M297.5,297.4h-6.6v0.6h1.4l0,0c-0.9,0.5-1.5,1.5-1.5,2.8c0,2,1.4,3.4,3.5,3.4s3.5-1.4,3.5-3.4c0-1.3-0.6-2.3-1.5-2.8l0,0h1.4v-0.6
	H297.5z M297.5,311.3H293l4.5-5.3v-1.2l-4.8,5.6l-4.7-5.5v1.1l4.5,5.2H288v0.8h9.4v-0.7H297.5z"/>
<path class="st0" d="M277.8,224.7L277.8,224.7c0.3,0.3,0.4,0.7,0.4,1c0,0.7-0.5,1.1-1.3,1.1h-3.4v-2.1h-1.1v2.1h-1.8v1l1.8,0.2v1.2
	h1.1V228h3.4c1.5,0,2.3-0.8,2.3-2.2c0-0.5-0.1-0.9-0.2-1.2L277.8,224.7L277.8,224.7z M269.7,232.5c0,0.5,0.3,0.8,0.7,0.8
	c0.4,0,0.8-0.3,0.8-0.8c0-0.4-0.3-0.7-0.8-0.7C270,231.8,269.7,232.1,269.7,232.5 M269.7,235.3c0,0.4,0.3,0.7,0.7,0.7
	c0.4,0,0.8-0.3,0.8-0.7c0-0.5-0.3-0.8-0.8-0.8C270,234.6,269.7,234.9,269.7,235.3 M278.2,233.9c0,1.4-1,2.3-2.4,2.3
	s-2.4-0.9-2.4-2.3c0-1.3,1-2.3,2.4-2.3S278.2,232.5,278.2,233.9 M279.1,230.4h-6.6v1h1.1l0,0c-0.8,0.5-1.2,1.4-1.2,2.6
	c0,1.9,1.4,3.3,3.5,3.3s3.5-1.4,3.5-3.3c0-1.2-0.5-2.1-1.2-2.6l0,0h1.1v-1H279.1z M277.8,238.3L277.8,238.3c0.3,0.3,0.4,0.7,0.4,1
	c0,0.7-0.5,1.1-1.3,1.1h-3.4v-2.1h-1.1v2.1h-1.8v1l1.8,0.2v1.2h1.1v-1.2h3.4c1.5,0,2.3-0.8,2.3-2.2c0-0.5-0.1-0.9-0.2-1.2
	L277.8,238.3L277.8,238.3z M279.1,244h-6.6v1.2h6.6V244z M269.6,244.6c0,0.5,0.3,0.8,0.8,0.8s0.8-0.3,0.8-0.8s-0.3-0.8-0.8-0.8
	S269.6,244.2,269.6,244.6 M272.3,249.1c0,1.5,0.9,2.6,2.1,2.6s1.8-0.6,1.9-2.4c0.1-1.2,0.3-1.6,0.9-1.6s1,0.6,1,1.5
	c0,1.1-0.3,1.9-0.9,2.4v0.1h1.3c0.5-0.6,0.7-1.4,0.7-2.5c0-1.6-0.8-2.6-2.1-2.6c-1.3,0-1.9,0.7-2,2.5c-0.1,1.1-0.3,1.5-0.8,1.5
	c-0.6,0-1-0.6-1-1.4c0-0.9,0.2-1.6,0.7-2.1V247h-1.3C272.5,247.5,272.3,248.3,272.3,249.1 M272.3,253.5c0,1,0.4,1.7,1.2,2.1l0,0
	h-1.1v1h6.6v-1.2h-3c-1.7,0-2.6-0.6-2.6-1.9c0-0.4,0.1-0.8,0.3-1v-0.1h-1.2C272.5,252.7,272.3,253,272.3,253.5 M273.4,261.4
	c0-1.2,0.7-2.1,1.8-2.2v4.5C274.1,263.4,273.4,262.5,273.4,261.4 M276.2,258.1h-0.7c-1.9,0-3.2,1.3-3.2,3.4c0,2,1.4,3.5,3.5,3.5
	s3.5-1.5,3.5-3.9c0-1-0.3-1.9-0.8-2.5h-1.2v0.1c0.6,0.6,0.9,1.5,0.9,2.5c0,1.5-0.8,2.5-2,2.7L276.2,258.1L276.2,258.1z M279.1,268.1
	l-6.6-2.8v1.2l5.4,2.1l0,0l-5.4,2.1v1.3l6.6-2.8V268.1z M279.1,273.1h-6.6v1.2h6.6V273.1z M269.6,273.7c0,0.5,0.3,0.8,0.8,0.8
	s0.8-0.3,0.8-0.8s-0.3-0.8-0.8-0.8C269.9,272.9,269.6,273.3,269.6,273.7 M272.3,278.8c0,1.1,0.4,1.9,1.2,2.4l0,0h-1.1v1h6.6V281
	h-3.5c-1.4,0-2.3-0.7-2.3-2c0-1.1,0.7-1.8,2-1.8h3.7V276H275C273.5,276,272.3,277.1,272.3,278.8 M269.7,284v1.3h5.4c1.9,0,3,1,3,2.7
	c0,1.8-1.1,2.7-3,2.7h-5.4v1.4h5.5c2.7,0,4.1-1.4,4.1-4c0-2.7-1.4-4-4.1-4h-5.5V284z M273.4,299.9c0-1.2,0.7-2.1,1.8-2.2v4.5
	C274.1,301.9,273.4,301.1,273.4,299.9 M276.2,296.6h-0.7c-1.9,0-3.2,1.3-3.2,3.4c0,2,1.4,3.5,3.5,3.5s3.5-1.5,3.5-3.9
	c0-1-0.3-1.9-0.8-2.5h-1.2v0.1c0.6,0.6,0.9,1.5,0.9,2.5c0,1.5-0.8,2.5-2,2.7L276.2,296.6L276.2,296.6z M272.3,307.4
	c0,1,0.3,1.8,1,2.2l0,0h-4.1v1.2h9.9v-1.2h-3.5c-1.4,0-2.3-0.7-2.3-2c0-1.1,0.7-1.8,2-1.8h3.7v-1.2h-3.9
	C273.5,304.7,272.3,305.7,272.3,307.4 M272.3,314.6c0,2.2,1.4,3.6,3.5,3.6c2,0,3.5-1.4,3.5-3.6c0-0.9-0.2-1.7-0.6-2.2h-1.3v0.1
	c0.6,0.5,0.9,1.1,0.9,2c0,1.5-1,2.5-2.4,2.5s-2.4-1-2.4-2.5c0-0.8,0.3-1.5,0.9-2v-0.1H273C272.6,313,272.3,313.7,272.3,314.6
	 M272.3,321.7c0,1.5,0.9,2.6,2.1,2.6s1.8-0.6,1.9-2.4c0.1-1.2,0.3-1.6,0.9-1.6s1,0.6,1,1.5c0,1.1-0.3,1.9-0.9,2.4v0.1h1.3
	c0.5-0.6,0.7-1.4,0.7-2.5c0-1.6-0.8-2.6-2.1-2.6c-1.3,0-1.9,0.7-2,2.5c-0.1,1.1-0.3,1.5-0.8,1.5c-0.6,0-1-0.6-1-1.4
	c0-0.9,0.2-1.6,0.7-2.1v-0.1h-1.3C272.5,320,272.3,320.8,272.3,321.7 M279.1,325.7h-6.6v1.2h6.6V325.7z M269.6,326.4
	c0,0.5,0.3,0.8,0.8,0.8s0.8-0.3,0.8-0.8s-0.3-0.8-0.8-0.8S269.6,325.9,269.6,326.4 M272.3,331.4c0,1.1,0.4,1.9,1.2,2.4l0,0h-1.1v1
	h6.6v-1.2h-3.5c-1.4,0-2.3-0.7-2.3-2c0-1.1,0.7-1.8,2-1.8h3.7v-1.2H275C273.5,328.6,272.3,329.7,272.3,331.4 M272.3,339.2
	c0,1,0.3,1.8,1,2.2l0,0h-4.1v1.2h9.9v-1.2h-3.5c-1.4,0-2.3-0.7-2.3-2c0-1.1,0.7-1.8,2-1.8h3.7v-1.2h-3.9
	C273.5,336.5,272.3,337.6,272.3,339.2 M272.3,346.5c0,2.2,1.4,3.6,3.5,3.6c2,0,3.5-1.4,3.5-3.6c0-0.9-0.2-1.7-0.6-2.2h-1.3v0.1
	c0.6,0.5,0.9,1.1,0.9,2c0,1.5-1,2.5-2.4,2.5s-2.4-0.9-2.4-2.5c0-0.8,0.3-1.5,0.9-2v-0.1H273C272.6,344.8,272.3,345.6,272.3,346.5
	 M273.4,354.4c0-1.2,0.7-2.1,1.8-2.2v4.5C274.1,356.4,273.4,355.5,273.4,354.4 M276.2,351h-0.7c-1.9,0-3.2,1.3-3.2,3.4
	c0,2,1.4,3.5,3.5,3.5s3.5-1.5,3.5-3.9c0-1-0.3-1.9-0.8-2.5h-1.2v0.1c0.6,0.6,0.9,1.5,0.9,2.5c0,1.5-0.8,2.5-2,2.7L276.2,351
	L276.2,351z M270.9,360.5v-3.1h-1.2v7.6h1.2v-3.1h8.2v-1.4H270.9z"/>
<path class="st0" d="M254.5,228c0-1.2,0.7-2.1,1.8-2.2v4.5C255.2,230,254.5,229.1,254.5,228 M257.3,224.6h-0.7
	c-1.9,0-3.2,1.3-3.2,3.4c0,2,1.4,3.5,3.5,3.5c2.1,0,3.5-1.5,3.5-3.9c0-1-0.3-1.9-0.8-2.5h-1.2v0.1c0.6,0.6,0.9,1.5,0.9,2.5
	c0,1.5-0.8,2.5-2,2.7L257.3,224.6L257.3,224.6z M253.4,235.4c0,1,0.3,1.8,1,2.2l0,0h-4.1v1.2h9.9v-1.2h-3.5c-1.4,0-2.3-0.7-2.3-2
	c0-1.1,0.7-1.8,2-1.8h3.7v-1.2h-3.9C254.5,232.7,253.4,233.8,253.4,235.4 M253.4,242.7c0,2.2,1.4,3.6,3.5,3.6c2,0,3.5-1.4,3.5-3.6
	c0-0.9-0.2-1.7-0.6-2.2h-1.3v0.1c0.6,0.5,0.9,1.1,0.9,2c0,1.5-1,2.5-2.4,2.5s-2.4-0.9-2.4-2.5c0-0.8,0.3-1.5,0.9-2v-0.1h-1.3
	C253.6,241,253.4,241.8,253.4,242.7 M253.4,249.7c0,1.5,0.9,2.6,2.1,2.6s1.8-0.6,1.9-2.4c0.1-1.2,0.3-1.6,0.9-1.6s1,0.6,1,1.5
	c0,1.1-0.3,1.9-0.9,2.4v0.1h1.3c0.5-0.6,0.7-1.4,0.7-2.5c0-1.6-0.8-2.6-2.1-2.6c-1.3,0-1.9,0.7-2,2.5c-0.1,1.1-0.3,1.5-0.8,1.5
	c-0.6,0-1-0.6-1-1.4c0-0.9,0.2-1.6,0.7-2.1v-0.1h-1.3C253.6,248.1,253.4,248.9,253.4,249.7 M260.2,253.8h-6.6v1.2h6.6V253.8z
	 M250.7,254.4c0,0.5,0.3,0.8,0.8,0.8s0.8-0.3,0.8-0.8s-0.3-0.8-0.8-0.8S250.7,253.9,250.7,254.4 M260.2,262.3v-5.8h-1.1v4.1
	l-4.6-4.1h-1v5.5h1.1v-3.9l4.6,4.1L260.2,262.3L260.2,262.3z M260.2,263.8h-9.9v1.2h9.9V263.8z M250.7,269c0,0.5,0.3,0.8,0.7,0.8
	s0.8-0.3,0.8-0.8c0-0.4-0.3-0.7-0.8-0.7C251,268.3,250.7,268.6,250.7,269 M250.7,271.8c0,0.4,0.3,0.7,0.7,0.7s0.8-0.3,0.8-0.7
	c0-0.5-0.3-0.8-0.8-0.8C251,271,250.7,271.3,250.7,271.8 M259.3,270.4c0,1.4-1,2.3-2.4,2.3s-2.4-0.9-2.4-2.3c0-1.3,1-2.3,2.4-2.3
	S259.3,269,259.3,270.4 M260.2,266.9h-6.6v1h1.1l0,0c-0.8,0.5-1.2,1.4-1.2,2.6c0,1.9,1.4,3.3,3.5,3.3c2,0,3.5-1.4,3.5-3.3
	c0-1.2-0.5-2.1-1.2-2.6l0,0h1.1v-1H260.2z M250.1,275.3c0,1.4,0.9,2.2,2.4,2.2h1.1v1.2h1.1v-1.2h5.6v-1.2h-5.6v-2.1h-1.1v2.1h-1.1
	c-0.9,0-1.3-0.4-1.3-1.2c0-0.4,0.1-0.8,0.3-1.1v-0.1h-1.1C250.2,274.3,250.1,274.8,250.1,275.3 M255.5,285.6H252V283
	c0-1.4,0.6-2,1.8-2s1.8,0.7,1.8,2v2.6H255.5z M250.8,287h9.4v-1.4h-3.5v-2.7c0-2.2-1-3.4-3-3.4s-3,1.1-3,3.4L250.8,287L250.8,287z
	 M256.9,288.7h-1.2v3.9h1.2V288.7z M259.3,297.7c0,1.4-1,2.3-2.4,2.3s-2.4-0.9-2.4-2.3c0-1.3,1-2.3,2.4-2.3S259.3,296.4,259.3,297.7
	 M260.2,294.3h-9.9v1.2h4.2l0,0c-0.6,0.5-1,1.3-1,2.4c0,1.9,1.4,3.3,3.5,3.3c2,0,3.5-1.4,3.5-3.3c0-1.2-0.5-2.1-1.2-2.6l0,0h1.1v-1
	H260.2z M253.4,305.2c0,1.1,0.4,1.9,1.2,2.4l0,0h-1.1v1h6.6v-1.2h-3.5c-1.4,0-2.3-0.7-2.3-2c0-1.1,0.7-1.8,2-1.8h3.7v-1.2h-3.9
	C254.5,302.5,253.4,303.5,253.4,305.2 M259.3,314c0,1.4-1,2.3-2.4,2.3s-2.4-0.9-2.4-2.3c0-1.3,1-2.3,2.4-2.3S259.3,312.7,259.3,314
	 M260.2,310.6h-6.6v1h1.1l0,0c-0.8,0.5-1.2,1.4-1.2,2.6c0,1.9,1.4,3.3,3.5,3.3c2,0,3.5-1.4,3.5-3.3c0-1.2-0.5-2.1-1.2-2.6l0,0h1.1
	v-1H260.2z M260.2,319h-9.9v1.2h9.9V319z M253.4,324.6c0,1.1,0.4,1.9,1.2,2.4l0,0h-1.1v1h6.6v-1.1h-3.5c-1.4,0-2.3-0.7-2.3-2
	c0-1.1,0.7-1.8,2-1.8h3.7v-1.2h-3.9C254.5,321.9,253.4,322.9,253.4,324.6 M260.2,329.9h-6.6v1.2h6.6V329.9z M250.7,330.5
	c0,0.5,0.3,0.8,0.8,0.8s0.8-0.3,0.8-0.8s-0.3-0.8-0.8-0.8S250.7,330.1,250.7,330.5 M254.5,335.9c0-1.2,0.7-2.1,1.8-2.2v4.5
	C255.2,337.9,254.5,337,254.5,335.9 M257.3,332.6h-0.7c-1.9,0-3.2,1.3-3.2,3.4c0,2,1.4,3.5,3.5,3.5c2.1,0,3.5-1.5,3.5-3.9
	c0-1-0.3-1.9-0.8-2.5h-1.2v0.1c0.6,0.6,0.9,1.5,0.9,2.5c0,1.5-0.8,2.5-2,2.7L257.3,332.6L257.3,332.6z M253.4,343.4
	c0,1,0.3,1.8,1,2.2l0,0h-4.1v1.2h9.9v-1.2h-3.5c-1.4,0-2.3-0.7-2.3-2c0-1.1,0.7-1.8,2-1.8h3.7v-1.2h-3.9
	C254.5,340.6,253.4,341.7,253.4,343.4 M255.4,354.6H252v-2.7c0-1.4,0.6-2,1.7-2c1.2,0,1.7,0.7,1.7,2V354.6z M260.2,354.6h-3.6v-2.5
	l3.6-2.3v-1.6l-3.7,2.5c-0.3-1.4-1.3-2.2-2.8-2.2c-1.9,0-2.9,1.1-2.9,3.4v4.1h9.4V354.6z"/>
<g id="Ebene_1_Kopie_00000109002030260505761730000001543674881803421864_">
	<g>
		<path d="M316.4,200.5v-20.4H309v20.4c0,2.3-0.7,4.2-2.2,5.8c-0.7,0.7-1.5,1.3-2.3,1.7c-0.2,0.1-0.2,0.1-0.4,0.2
			c-1.1,0.6-1.9,1.7-1.9,3.1c0,1.9,1.5,3.4,3.4,3.4c0.3,0,0.9-0.1,1.3-0.3c1.9-0.7,3.7-1.8,5.2-3.3
			C315,208.2,316.4,204.7,316.4,200.5"/>
		<path d="M285.4,200.5c0,4.2,1.4,7.7,4.2,10.6c1.5,1.5,3.3,2.6,5.2,3.3c0.4,0.2,1,0.3,1.3,0.3c1.9,0,3.4-1.5,3.4-3.4
			c0-1.4-0.8-2.5-1.9-3.1c-0.2-0.1-0.2-0.1-0.4-0.2c-0.8-0.4-1.6-1-2.3-1.7c-1.5-1.6-2.2-3.5-2.2-5.8v-20.4h-7.3V200.5"/>
	</g>
</g>
</svg>
