<?xml version="1.0" encoding="UTF-8"?>
<svg xmlns="http://www.w3.org/2000/svg" version="1.1" width="119.93056" height="100" viewBox="0 0 119.93056 100">
 <path d="M 50.00032,100 C 22.43114,100 0,77.567459 0,50.000182 0,22.431906 22.43114,0 50.00032,0 63.3484,0 75.90248,5.2001957 85.35154,14.643756 l -7.77905,7.77805 C 70.20345,15.061959 60.41038,11.001833 50.00032,11.001833 c -21.50414,0 -39.00025,17.489912 -39.00025,38.998349 0,21.507538 17.49611,38.99845 39.00025,38.99845 12.97808,0 25.06416,-6.424341 32.3372,-17.20041 l 9.12106,6.166139 C 82.13352,91.75965 66.63642,100 50.00032,100" fill="#042c58"/>
 <path d="m80.58306 55.227866 34.35844-36.16256c3.34504-3.502346 4.98906-6.95189 4.98906-10.507814v-1.794173c0-2.3844304-0.34402-3.1255898-0.41402-3.2440514-0.762 0.04346-2.11602 0.2794536-4.50604 1.8376936-2.11604 1.3749774-4.58706 3.4799842-7.3541 6.2410492l-34.65844 34.325938c-2.16404 2.127326-4.02306 3.802948-5.57608 5.039264-2.15402 1.696922-3.48504 2.36313-4.76406 2.36313-1.76202 0-4.17504-0.82721-5.67806-4.76986-0.85502-2.24573-1.56902-5.920076-2.18604-11.259044l-0.167-1.751622c-0.349-3.341244-1.28402-7.370094-3.70104-7.370094-3.04004 0-5.79008 1.289016-8.40712 3.95385-2.62102 2.663934-3.90004 5.43617-3.90004 8.465608 0 6.736186 0.35 13.064366 1.04202 18.81134 0.886 7.359894 1.66602 9.916426 2.04602 10.798338 0.726 1.66452 2.48302 3.393942 5.23806 5.145564 3.46004 2.192028 5.52808 2.653734 6.65608 2.653734 0.35402 0 2.44904-0.268302 8.93312-5.54347 4.92106-4.028752 10.99614-9.820226 18.04924-17.23282" fill="#26d07c"/>
</svg>
