<?xml version="1.0" encoding="UTF-8"?>
<svg xmlns="http://www.w3.org/2000/svg" version="1.1" width="543.78149" height="100" viewBox="0 0 543.78149 100">
 <g fill="#042c58">
  <path d="m0 4.5235414h50.294822v9.7665126h-39.336552v30.231193h36.038831v9.771663h-36.038831v32.86971h39.997756v9.770563h-50.956026z"/>
  <path d="m102.76966 49.933682-28.121282-45.412571h13.203984l18.747318 31.285181 3.29802 7.530948 3.16902-7.530948 19.80513-31.285181h12.14608l-29.04419 44.488165 30.3602 47.926607h-12.80709l-20.85713-33.143112-3.56202-7.917751-3.43202 7.917751-21.385341 33.143112h-12.279578z"/>
  <path d="m211.89036 100c-27.56918 0-50.00032-22.432541-50.00032-49.999818 0-27.568276 22.43114-50.000182 50.00032-50.000182 13.34808 0 25.90216 5.2001957 35.35122 14.643756l-7.77905 7.77805c-7.36904-7.359847-17.16211-11.419973-27.57217-11.419973-21.50414 0-39.00025 17.489912-39.00025 38.998349 0 21.507538 17.49611 38.99845 39.00025 38.99845 12.97808 0 25.06416-6.424341 32.3372-17.20041l9.12106 6.166139c-9.32506 13.795289-24.82216 22.035639-41.45826 22.035639"/>
  <path d="m359.6883 61.818658 10.11407-27.857878 3.28202-14.256991h0.135l3.28102 13.993789 10.25107 28.12108zm16.30311-58.750176h-5.01804l-31.3392 84.094038h-40.87326v-82.638079h-10.95707v92.408642h59.14138l9.19706-25.612064h33.89022l9.46006 25.612064h11.61307z"/>
  <path d="m425.89373 4.5232314h10.95807v92.409652h-10.95807z"/>
  <path d="m532.82341 34.884586 1.32201-13.859089h-0.66101l-5.01803 12.672481-24.02615 41.716967h-3.29902l-25.48417-41.846568-4.74703-12.54288h-0.662l1.84701 13.730488v62.177598h-10.29606v-92.409742h8.18505l28.91118 47.260353 4.35703 10.297166h0.263l4.09403-10.560368 27.58918-46.997151h8.58305v92.409742h-10.95807z"/>
 </g>
 <path d="m242.4731 55.227866 34.35844-36.16256c3.34504-3.502346 4.98906-6.95189 4.98906-10.507814v-1.794173c0-2.3844304-0.34402-3.1255898-0.41402-3.2440514-0.762 0.04346-2.11602 0.2794536-4.50604 1.8376936-2.11604 1.3749774-4.58706 3.4799842-7.3541 6.2410492l-34.65844 34.325938c-2.16404 2.127326-4.02306 3.802948-5.57608 5.039264-2.15402 1.696922-3.48504 2.36313-4.76406 2.36313-1.76202 0-4.17504-0.82721-5.67806-4.76986-0.85502-2.24573-1.56902-5.920076-2.18604-11.259044l-0.167-1.751622c-0.349-3.341244-1.28402-7.370094-3.70104-7.370094-3.04004 0-5.79008 1.289016-8.40712 3.95385-2.62102 2.663934-3.90004 5.43617-3.90004 8.465608 0 6.736186 0.35 13.064366 1.04202 18.81134 0.886 7.359894 1.66602 9.916426 2.04602 10.798338 0.726 1.66452 2.48302 3.393942 5.23806 5.145564 3.46004 2.192028 5.52808 2.653734 6.65608 2.653734 0.35402 0 2.44904-0.268302 8.93312-5.54347 4.92106-4.028752 10.99614-9.820226 18.04924-17.23282" fill="#26d07c"/>
</svg>
