<?xml version="1.0" encoding="utf-8"?>
<!-- Generator: Adobe Illustrator 27.1.0, SVG Export Plug-In . SVG Version: 6.00 Build 0)  -->
<svg version="1.1" id="Ebene_1" xmlns="http://www.w3.org/2000/svg" xmlns:xlink="http://www.w3.org/1999/xlink" x="0px" y="0px"
	 viewBox="0 0 500 500" style="enable-background:new 0 0 500 500;" xml:space="preserve">
<style type="text/css">
	.st0{fill:#060605;}
</style>
<path class="st0" d="M93,255.4h18c3.4,0,6.2,1.1,8.4,3.3c2.2,2.2,3.3,4.9,3.3,8.1c0,1.4-0.2,2.7-0.6,3.9c-0.4,1.2-0.9,2.2-1.5,2.9
	c-0.6,0.7-1.2,1.4-1.8,1.9c-0.6,0.5-1.1,0.9-1.5,1.1l-0.6,0.3L124,290h-7.8l-6.6-12.1h-9.2V290H93V255.4z M114.1,263.4
	c-0.9-0.9-2-1.3-3.3-1.3h-10.4v9.1h10.4c1.3,0,2.4-0.4,3.3-1.3s1.3-1.9,1.3-3.2S115,264.2,114.1,263.4"/>
<path class="st0" d="M146.7,255.4c3.5,0,6.4,1.1,8.7,3.3c2.3,2.2,3.5,5,3.5,8.3s-1.2,6-3.5,8.3c-2.3,2.2-5.2,3.3-8.7,3.3h-11.4v11.3
	H128v-34.5L146.7,255.4L146.7,255.4z M135.3,262v9.9h11.1c1.5,0,2.7-0.5,3.7-1.4s1.5-2.1,1.5-3.5s-0.5-2.6-1.5-3.5
	c-1-1-2.2-1.4-3.7-1.4h-11.1V262z"/>
<polygon class="st0" points="191.1,210.8 191.1,217.4 179.3,217.4 179.3,245.3 172,245.3 172,217.4 160.2,217.4 160.2,210.8 "/>
<g>
	<path class="st0" d="M293.7,290.1v-8h-0.9v4.1c0,2-1.1,3.3-2.9,3.3c-1.7,0-2.7-1.1-2.7-2.9v-4.5h-0.9v4.6c0,2.2,1.3,3.6,3.4,3.6
		c1.5,0,2.6-0.6,3.1-1.8l0,0v1.6L293.7,290.1L293.7,290.1z M280,289.5c-1.9,0-3.3-1.4-3.3-3.4s1.4-3.4,3.3-3.4c2,0,3.4,1.4,3.4,3.4
		C283.3,288.1,281.9,289.5,280,289.5 M284.1,290.1v-8h-0.8v1.7l0,0c-0.6-1.1-1.9-1.8-3.5-1.8c-2.4,0-4.1,1.7-4.1,4.2
		c0,2.4,1.7,4.2,4.1,4.2c1.6,0,2.8-0.7,3.5-1.8l0,0v1.7h0.8V290.1z M269.7,289.5c-1.9,0-3.3-1.4-3.3-3.4s1.4-3.4,3.3-3.4
		c2,0,3.4,1.4,3.4,3.4C273,288.1,271.6,289.5,269.7,289.5 M273.9,290.1V278H273v5.6l0,0c-0.6-1.1-1.8-1.7-3.4-1.7
		c-2.4,0-4.1,1.7-4.1,4.2c0,2.4,1.7,4.2,4.1,4.2c1.6,0,2.8-0.7,3.5-1.8l0,0v1.7h0.8V290.1z M260.4,281.9c-1.5,0-2.6,0.7-3.1,1.8l0,0
		V282h-0.8v8h0.9v-4c0-2.1,1.1-3.3,2.9-3.3c1.7,0,2.7,1.1,2.7,2.9v4.5h0.9v-4.6C263.8,283.3,262.5,281.9,260.4,281.9 M249.8,289.5
		c-1.9,0-3.3-1.4-3.3-3.4s1.4-3.4,3.3-3.4c2,0,3.4,1.4,3.4,3.4S251.8,289.5,249.8,289.5 M254,290.1v-8h-0.8v1.7l0,0
		c-0.6-1.1-1.9-1.8-3.5-1.8c-2.4,0-4.1,1.7-4.1,4.2c0,2.4,1.7,4.2,4.1,4.2c1.6,0,2.8-0.7,3.5-1.8l0,0v1.7h0.8V290.1z M244.4,290.1
		v-0.9h-7v-10.6h-0.9V290h7.9V290.1z"/>
	<path class="st0" d="M339.3,259.3c-1.5,0-2.6,0.7-3.1,1.8l0,0v-1.7h-0.8v8h0.9v-4.1c0-2.1,1.1-3.3,2.9-3.3c1.7,0,2.7,1.1,2.7,2.9
		v4.5h0.9v-4.6C342.7,260.6,341.4,259.3,339.3,259.3 M332.7,259.3c-1.3,0-2.2,0.6-2.6,1.7l0,0v-1.5h-0.8v8h0.9v-3.8
		c0-2.3,0.8-3.5,2.5-3.5c0.5,0,0.9,0.1,1.3,0.4h0.1v-0.9C333.7,259.4,333.2,259.3,332.7,259.3 M323.3,260.1c1.9,0,3.1,1.1,3.2,2.9
		h-6.6C320.2,261.2,321.5,260.1,323.3,260.1 M327.4,263.7v-0.5c0-2.3-1.6-3.9-4.1-3.9c-2.4,0-4.2,1.7-4.2,4.2c0,2.6,1.8,4.2,4.6,4.2
		c1.3,0,2.4-0.4,3.1-1.1v-0.9h-0.1c-0.8,0.8-1.8,1.2-3.1,1.2c-2.2,0-3.6-1.2-3.7-3.2L327.4,263.7L327.4,263.7z M317.9,266.4
		L317.9,266.4c-0.4,0.3-0.8,0.4-1.3,0.4c-1,0-1.6-0.7-1.6-1.8v-4.8h2.8v-0.8h-2.7v-2.1h-0.7l-0.2,2.1h-1.6v0.8h1.6v4.9
		c0,1.6,0.9,2.6,2.4,2.6c0.6,0,1-0.1,1.4-0.3L317.9,266.4L317.9,266.4z M311.2,267.5v-8h-0.9v4.1c0,2-1.1,3.3-2.9,3.3
		c-1.7,0-2.7-1.1-2.7-2.9v-4.5h-0.9v4.6c0,2.2,1.3,3.6,3.4,3.6c1.5,0,2.6-0.6,3.1-1.8l0,0v1.6L311.2,267.5L311.2,267.5z
		 M297.4,266.8c-1.9,0-3.3-1.4-3.3-3.4s1.4-3.4,3.3-3.4c2,0,3.4,1.4,3.4,3.4C300.8,265.5,299.4,266.8,297.4,266.8 M301.6,267.5v-8
		h-0.8v1.7l0,0c-0.6-1.1-1.9-1.8-3.5-1.8c-2.4,0-4.1,1.7-4.1,4.2c0,2.4,1.7,4.2,4.1,4.2c1.6,0,2.8-0.7,3.5-1.8l0,0v1.7h0.8V267.5z
		 M290.5,267.5h0.9v-12.1h-0.9V267.5z M285.6,259.3c-1.8,0-3,1-3,2.4s0.7,2,2.9,2.1c1.8,0.1,2.3,0.5,2.3,1.4c0,1-0.9,1.6-2.2,1.6
		c-1.3,0-2.4-0.4-3-1.1h-0.1v1c0.7,0.6,1.7,0.9,3.1,0.9c1.9,0,3-0.9,3-2.4s-0.8-2.2-3-2.3c-1.7-0.1-2.2-0.4-2.2-1.3s0.9-1.6,2.1-1.6
		s2,0.3,2.6,0.9h0.1v-1C287.7,259.5,286.7,259.3,285.6,259.3 M280.5,259.3c-1.3,0-2.2,0.6-2.6,1.7l0,0v-1.5h-0.8v8h0.9v-3.8
		c0-2.3,0.8-3.5,2.5-3.5c0.5,0,0.9,0.1,1.3,0.4h0.1v-0.9C281.4,259.4,281,259.3,280.5,259.3 M271.1,260.1c1.9,0,3.1,1.1,3.2,2.9
		h-6.6C268,261.2,269.3,260.1,271.1,260.1 M275.1,263.7v-0.5c0-2.3-1.6-3.9-4.1-3.9c-2.4,0-4.2,1.7-4.2,4.2c0,2.6,1.8,4.2,4.6,4.2
		c1.3,0,2.4-0.4,3.1-1.1v-0.9h-0.1c-0.8,0.8-1.8,1.2-3.1,1.2c-2.2,0-3.6-1.2-3.7-3.2L275.1,263.7L275.1,263.7z M262.5,259.3
		c-1.8,0-3,1-3,2.4s0.7,2,2.9,2.1c1.8,0.1,2.3,0.5,2.3,1.4c0,1-0.9,1.6-2.2,1.6s-2.4-0.4-3-1.1h-0.1v1c0.7,0.6,1.7,0.9,3.1,0.9
		c1.9,0,3-0.9,3-2.4s-0.8-2.2-3-2.3c-1.7-0.1-2.2-0.4-2.2-1.3s0.9-1.6,2.1-1.6s2,0.3,2.6,0.9h0.1v-1
		C264.6,259.5,263.6,259.3,262.5,259.3 M256.8,267.5h0.9v-8h-0.9V267.5z M257.2,256.2c-0.4,0-0.6,0.3-0.6,0.7c0,0.3,0.3,0.6,0.6,0.6
		c0.4,0,0.6-0.3,0.6-0.6C257.8,256.5,257.6,256.2,257.2,256.2 M250.1,266.8c-1.9,0-3.3-1.4-3.3-3.4s1.4-3.4,3.3-3.4
		c2,0,3.4,1.4,3.4,3.4C253.5,265.5,252.1,266.8,250.1,266.8 M254.3,267.5v-8h-0.8v1.7l0,0c-0.6-1.1-1.9-1.8-3.5-1.8
		c-2.4,0-4.1,1.7-4.1,4.2c0,2.4,1.7,4.2,4.1,4.2c1.6,0,2.8-0.7,3.5-1.8l0,0v1.7h0.8V267.5z M237.5,267.5V262l6.4,5.5h1.4l-6.8-5.8
		l6.6-5.7h-1.4l-6.3,5.4V256h-0.9v11.4h1V267.5z"/>
	<path class="st0" d="M406.7,243.6L406.7,243.6c-0.4,0.3-0.8,0.5-1.3,0.5c-0.9,0-1.4-0.6-1.4-1.5v-4.1h2.6v-1.3H404V235h-1.2
		l-0.2,2.2h-1.5v1.3h1.5v4.2c0,1.8,0.9,2.8,2.6,2.8c0.6,0,1.1-0.1,1.5-0.3L406.7,243.6L406.7,243.6z M397.2,233.7
		c-0.6,0-0.9,0.4-0.9,0.9s0.4,0.9,0.9,0.9s0.9-0.4,0.9-0.9C398.1,234,397.7,233.7,397.2,233.7 M393.8,233.7c-0.5,0-0.9,0.4-0.9,0.9
		s0.4,0.9,0.9,0.9s0.9-0.4,0.9-0.9C394.8,234,394.4,233.7,393.8,233.7 M395.6,244c-1.7,0-2.8-1.2-2.8-2.9s1.1-2.9,2.8-2.9
		c1.6,0,2.8,1.2,2.8,2.9C398.3,242.9,397.2,244,395.6,244 M399.8,245.2v-8.1h-1.2l-0.1,1.3l0,0c-0.6-0.9-1.7-1.5-3.1-1.5
		c-2.3,0-4,1.8-4,4.2s1.7,4.2,4,4.2c1.4,0,2.5-0.6,3.1-1.4l0,0l0.1,1.3H399.8z M390.2,243.6L390.2,243.6c-0.4,0.3-0.8,0.5-1.3,0.5
		c-0.9,0-1.4-0.6-1.4-1.5v-4.1h2.6v-1.3h-2.6V235h-1.2l-0.2,2.2h-1.5v1.3h1.5v4.2c0,1.8,0.9,2.8,2.6,2.8c0.6,0,1.1-0.1,1.5-0.3
		V243.6z M381.8,245.2h1.5v-8.1h-1.5V245.2z M382.5,233.6c-0.6,0-1,0.4-1,1s0.4,1,1,1s1-0.4,1-1S383.1,233.6,382.5,233.6
		 M377.1,236.9c-1.9,0-3.1,1-3.1,2.6c0,1.5,0.8,2.1,2.9,2.3c1.4,0.1,1.9,0.4,1.9,1.1s-0.7,1.2-1.8,1.2c-1.3,0-2.3-0.4-2.9-1.1H374
		v1.6c0.7,0.6,1.7,0.8,3.1,0.8c2,0,3.2-1,3.2-2.5c0-1.6-0.8-2.3-3-2.4c-1.3-0.1-1.8-0.3-1.8-0.9c0-0.7,0.7-1.2,1.7-1.2
		c1.1,0,2,0.3,2.5,0.9h0.1v-1.6C379.1,237.2,378.1,236.9,377.1,236.9 M371.8,236.9c-1.2,0-2.1,0.5-2.5,1.5l0,0v-1.3h-1.2v8.1h1.5
		v-3.7c0-2.1,0.7-3.2,2.3-3.2c0.5,0,0.9,0.1,1.3,0.4h0.1v-1.5C372.8,237.1,372.3,236.9,371.8,236.9 M362.2,238.3
		c1.5,0,2.5,0.8,2.7,2.2h-5.4C359.7,239.1,360.8,238.3,362.2,238.3 M366.2,241.6v-0.8c0-2.3-1.6-3.9-4.1-3.9s-4.2,1.7-4.2,4.2
		s1.8,4.2,4.7,4.2c1.3,0,2.4-0.3,3.1-0.9v-1.5h-0.1c-0.8,0.7-1.8,1.1-3,1.1c-1.8,0-3-0.9-3.2-2.4L366.2,241.6L366.2,241.6z
		 M354.1,245.2l3.4-8.1H356l-2.6,6.5l0,0l-2.6-6.5h-1.6l3.4,8.1H354.1z M346.5,245.2h1.5v-8.1h-1.5V245.2z M347.2,233.6
		c-0.6,0-1,0.4-1,1s0.4,1,1,1s1-0.4,1-1S347.8,233.6,347.2,233.6 M341.1,236.9c-1.4,0-2.3,0.5-2.9,1.4l0,0V237H337v8.1h1.5V241
		c0-1.7,0.9-2.7,2.4-2.7c1.4,0,2.2,0.9,2.2,2.4v4.5h1.5v-4.7C344.4,238.3,343.2,236.9,341.1,236.9 M334.7,233.7h-1.6v6.5
		c0,2.4-1.2,3.6-3.3,3.6c-2.1,0-3.3-1.3-3.3-3.6v-6.5h-1.7v6.6c0,3.3,1.7,5,4.9,5c3.2,0,4.9-1.7,4.9-5L334.7,233.7L334.7,233.7z
		 M315.4,238.3c1.5,0,2.5,0.8,2.7,2.2h-5.4C313,239.1,314.1,238.3,315.4,238.3 M319.5,241.6v-0.8c0-2.3-1.6-3.9-4.1-3.9
		s-4.2,1.7-4.2,4.2s1.8,4.2,4.7,4.2c1.3,0,2.4-0.3,3.1-0.9v-1.5h-0.1c-0.8,0.7-1.8,1.1-3,1.1c-1.8,0-3-0.9-3.2-2.4L319.5,241.6
		L319.5,241.6z M306.4,236.9c-1.2,0-2.1,0.4-2.7,1.2l0,0v-5h-1.5v12.1h1.5V241c0-1.7,0.9-2.7,2.4-2.7c1.4,0,2.2,0.9,2.2,2.4v4.5h1.5
		v-4.7C309.7,238.3,308.4,236.9,306.4,236.9 M297.6,236.9c-2.6,0-4.3,1.7-4.3,4.2c0,2.4,1.7,4.2,4.3,4.2c1.1,0,2-0.3,2.6-0.8V243
		h-0.1c-0.6,0.7-1.4,1.1-2.4,1.1c-1.8,0-3-1.2-3-2.9s1.2-2.9,3-2.9c1,0,1.8,0.3,2.4,1.1h0.1v-1.6
		C299.6,237.2,298.7,236.9,297.6,236.9 M289,236.9c-1.9,0-3.1,1-3.1,2.6c0,1.5,0.8,2.1,2.9,2.3c1.4,0.1,1.9,0.4,1.9,1.1
		s-0.7,1.2-1.8,1.2c-1.3,0-2.3-0.4-2.9-1.1h-0.1v1.6c0.7,0.6,1.7,0.8,3.1,0.8c2,0,3.2-1,3.2-2.5c0-1.6-0.8-2.3-3-2.4
		c-1.3-0.1-1.8-0.3-1.8-0.9c0-0.7,0.7-1.2,1.7-1.2c1.1,0,2,0.3,2.5,0.9h0.1v-1.6C291.1,237.2,290.1,236.9,289,236.9 M282.6,245.2
		h1.5v-8.1h-1.5V245.2z M283.4,233.6c-0.6,0-1,0.4-1,1s0.4,1,1,1s1-0.4,1-1C284.3,234,283.9,233.6,283.4,233.6 M277.3,236.9
		c-1.4,0-2.3,0.5-2.9,1.4l0,0V237h-1.3v8.1h1.5V241c0-1.7,0.9-2.7,2.4-2.7c1.4,0,2.2,0.9,2.2,2.4v4.5h1.5v-4.7
		C280.6,238.3,279.3,236.9,277.3,236.9 M267.7,236.9c-1.2,0-2.1,0.4-2.7,1.2l0,0v-5h-1.5v12.1h1.5V241c0-1.7,0.9-2.7,2.4-2.7
		c1.4,0,2.2,0.9,2.2,2.4v4.5h1.5v-4.7C271,238.3,269.8,236.9,267.7,236.9 M258.9,236.9c-2.6,0-4.3,1.7-4.3,4.2
		c0,2.4,1.7,4.2,4.3,4.2c1.1,0,2-0.3,2.6-0.8V243h-0.1c-0.6,0.7-1.4,1.1-2.4,1.1c-1.8,0-3-1.2-3-2.9s1.2-2.9,3-2.9
		c1,0,1.8,0.3,2.4,1.1h0.1v-1.6C261,237.2,260.1,236.9,258.9,236.9 M249.3,238.3c1.5,0,2.5,0.8,2.7,2.2h-5.4
		C246.9,239.1,248,238.3,249.3,238.3 M253.4,241.6v-0.8c0-2.3-1.6-3.9-4.1-3.9s-4.2,1.7-4.2,4.2s1.8,4.2,4.7,4.2
		c1.3,0,2.4-0.3,3.1-0.9v-1.5h-0.1c-0.8,0.7-1.8,1.1-3,1.1c-1.8,0-3-0.9-3.2-2.4L253.4,241.6L253.4,241.6z M242,235.2h3.7v-1.5h-9.2
		v1.5h3.8v10h1.7V235.2z"/>
	<path class="st0" d="M391.8,215.3c1.5,0,2.5,0.8,2.7,2.2h-5.4C389.3,216.2,390.4,215.3,391.8,215.3 M395.9,218.7v-0.8
		c0-2.3-1.6-3.9-4.1-3.9s-4.2,1.7-4.2,4.2s1.8,4.2,4.7,4.2c1.3,0,2.4-0.3,3.1-0.9V220h-0.1c-0.8,0.7-1.8,1.1-3,1.1
		c-1.8,0-3-0.9-3.2-2.4L395.9,218.7L395.9,218.7z M382.7,214c-1.2,0-2.1,0.4-2.7,1.2l0,0v-5h-1.5v12.1h1.5V218
		c0-1.7,0.9-2.7,2.4-2.7c1.4,0,2.2,0.9,2.2,2.4v4.5h1.5v-4.7C386,215.3,384.8,214,382.7,214 M374,214c-2.6,0-4.3,1.7-4.3,4.2
		c0,2.4,1.7,4.2,4.3,4.2c1.1,0,2-0.3,2.6-0.8V220h-0.1c-0.6,0.7-1.4,1.1-2.4,1.1c-1.8,0-3-1.2-3-2.9s1.2-2.9,3-2.9
		c1,0,1.8,0.3,2.4,1.1h0.1v-1.6C376,214.2,375.1,214,374,214 M365.4,214c-1.9,0-3.1,1-3.1,2.6c0,1.5,0.8,2.1,2.9,2.3
		c1.4,0.1,1.9,0.4,1.9,1.1c0,0.7-0.7,1.2-1.8,1.2c-1.3,0-2.3-0.4-2.9-1.1h-0.1v1.6c0.7,0.6,1.7,0.8,3.1,0.8c2,0,3.2-1,3.2-2.5
		c0-1.6-0.8-2.3-3-2.4c-1.3-0.1-1.8-0.3-1.8-0.9c0-0.7,0.7-1.2,1.7-1.2c1.1,0,2,0.3,2.5,0.9h0.1v-1.6
		C367.4,214.2,366.5,214,365.4,214 M359,222.2h1.5v-8.1H359V222.2z M359.7,210.7c-0.6,0-1,0.4-1,1s0.4,1,1,1s1-0.4,1-1
		S360.3,210.7,359.7,210.7 M350.2,222.2h7v-1.3h-5l4.9-5.6v-1.2h-6.7v1.3h4.7l-5,5.6v1.2H350.2z M346.8,222.2h1.5v-12.1h-1.5V222.2z
		 M342,210.7c-0.5,0-0.9,0.4-0.9,0.9s0.4,0.9,0.9,0.9s0.9-0.4,0.9-0.9C342.9,211.1,342.6,210.7,342,210.7 M338.6,210.7
		c-0.5,0-0.9,0.4-0.9,0.9s0.4,0.9,0.9,0.9c0.6,0,0.9-0.4,0.9-0.9C339.6,211.1,339.2,210.7,338.6,210.7 M340.4,221.1
		c-1.7,0-2.8-1.2-2.8-2.9s1.1-2.9,2.8-2.9c1.6,0,2.8,1.2,2.8,2.9C343.2,219.9,342,221.1,340.4,221.1 M344.6,222.2v-8.1h-1.2
		l-0.1,1.3l0,0c-0.6-0.9-1.7-1.5-3.1-1.5c-2.3,0-4,1.8-4,4.2s1.7,4.2,4,4.2c1.4,0,2.5-0.6,3.1-1.4l0,0l0.1,1.3H344.6z M334.3,210
		c-1.7,0-2.7,1-2.7,2.9v1.3h-1.5v1.3h1.5v6.8h1.5v-6.8h2.6v-1.3h-2.6v-1.3c0-1,0.5-1.6,1.4-1.6c0.5,0,1,0.1,1.3,0.4h0.1v-1.4
		C335.6,210.1,335,210,334.3,210 M321.9,216.5v-4.3h3.2c1.7,0,2.5,0.7,2.5,2.1c0,1.4-0.8,2.2-2.5,2.2H321.9z M320.2,210.8v11.4h1.6
		V218h3.3c2.7,0,4.1-1.2,4.1-3.6c0-2.4-1.4-3.6-4.1-3.6L320.2,210.8L320.2,210.8z M313.3,218.3h4.8v-1.5h-4.8V218.3z M307.2,221.1
		c-1.7,0-2.8-1.2-2.8-2.9s1.1-2.9,2.8-2.9c1.6,0,2.8,1.2,2.8,2.9C310,219.9,308.8,221.1,307.2,221.1 M311.4,222.2v-12.1h-1.5v5.1
		l0,0c-0.6-0.8-1.6-1.2-2.9-1.2c-2.3,0-4,1.8-4,4.2s1.7,4.2,4,4.2c1.4,0,2.5-0.6,3.1-1.4l0,0l0.1,1.3h1.2L311.4,222.2L311.4,222.2z
		 M298.1,214c-1.4,0-2.3,0.5-2.9,1.4l0,0v-1.3H294v8.1h1.5V218c0-1.7,0.9-2.7,2.4-2.7c1.4,0,2.2,0.9,2.2,2.4v4.5h1.5v-4.7
		C301.4,215.3,300.1,214,298.1,214 M287.4,221.1c-1.7,0-2.8-1.2-2.8-2.9s1.1-2.9,2.8-2.9c1.6,0,2.8,1.2,2.8,2.9
		C290.2,219.9,289,221.1,287.4,221.1 M291.6,222.2v-8.1h-1.2l-0.1,1.3l0,0c-0.6-0.9-1.7-1.5-3.1-1.5c-2.3,0-4,1.8-4,4.2
		s1.7,4.2,4,4.2c1.4,0,2.5-0.6,3.1-1.4l0,0l0.1,1.3H291.6z M279.9,222.2h1.5v-12.1h-1.5V222.2z M274.5,214c-1.4,0-2.3,0.5-2.9,1.4
		l0,0v-1.3h-1.2v8.1h1.5V218c0-1.7,0.9-2.7,2.4-2.7c1.4,0,2.2,0.9,2.2,2.4v4.5h1.5v-4.7C277.8,215.3,276.6,214,274.5,214
		 M266.6,222.2h1.5v-8.1h-1.5V222.2z M267.4,210.7c-0.6,0-1,0.4-1,1s0.4,1,1,1s1-0.4,1-1S267.9,210.7,267.4,210.7 M260.8,215.3
		c1.5,0,2.5,0.8,2.7,2.2h-5.4C258.4,216.2,259.5,215.3,260.8,215.3 M264.9,218.7v-0.8c0-2.3-1.6-3.9-4.1-3.9s-4.2,1.7-4.2,4.2
		s1.8,4.2,4.7,4.2c1.3,0,2.4-0.3,3.1-0.9V220h-0.1c-0.8,0.7-1.8,1.1-3,1.1c-1.8,0-3-0.9-3.2-2.4L264.9,218.7L264.9,218.7z
		 M251.8,214c-1.2,0-2.1,0.4-2.7,1.2l0,0v-5h-1.5v12.1h1.5V218c0-1.7,0.9-2.7,2.4-2.7c1.4,0,2.2,0.9,2.2,2.4v4.5h1.5v-4.7
		C255.1,215.3,253.8,214,251.8,214 M238.1,216.4v-4.2h3.3c1.7,0,2.5,0.7,2.5,2.1c0,1.4-0.8,2.1-2.5,2.1L238.1,216.4L238.1,216.4z
		 M238.1,222.2v-4.4h3.1l2.8,4.4h2l-3-4.5c1.8-0.4,2.6-1.5,2.6-3.4c0-2.3-1.4-3.5-4.1-3.5h-5v11.4H238.1z"/>
</g>
<g id="Ebene_1_Kopie_00000109002030260505761730000001543674881803421864_">
	<g>
		<path d="M226,231.2v-20.4h-7.3v20.4c0,2.3-0.7,4.2-2.2,5.8c-0.7,0.7-1.5,1.3-2.3,1.7c-0.2,0.1-0.2,0.1-0.4,0.2
			c-1.1,0.6-1.9,1.7-1.9,3.1c0,1.9,1.5,3.4,3.4,3.4c0.3,0,0.9-0.1,1.3-0.3c1.9-0.7,3.7-1.8,5.2-3.3C224.6,238.9,226,235.4,226,231.2
			"/>
		<path d="M195.1,231.2c0,4.2,1.4,7.7,4.2,10.6c1.5,1.5,3.3,2.6,5.2,3.3c0.4,0.2,1,0.3,1.3,0.3c1.9,0,3.4-1.5,3.4-3.4
			c0-1.4-0.8-2.5-1.9-3.1c-0.2-0.1-0.2-0.1-0.4-0.2c-0.8-0.4-1.6-1-2.3-1.7c-1.5-1.6-2.2-3.5-2.2-5.8v-20.4h-7.3V231.2"/>
	</g>
</g>
</svg>
