<?xml version="1.0" encoding="UTF-8" standalone="no"?>
<svg
   xmlns:dc="http://purl.org/dc/elements/1.1/"
   xmlns:cc="http://creativecommons.org/ns#"
   xmlns:rdf="http://www.w3.org/1999/02/22-rdf-syntax-ns#"
   xmlns:svg="http://www.w3.org/2000/svg"
   xmlns="http://www.w3.org/2000/svg"
   version="1.1"
   width="675.8994044562886"
   height="340"
   viewBox="0 0 683.46 343.8"
   xml:space="preserve"
   id="svg24"><metadata
   id="metadata28"><rdf:RDF><cc:Work
       rdf:about=""><dc:format>image/svg+xml</dc:format><dc:type
         rdf:resource="http://purl.org/dc/dcmitype/StillImage" /></cc:Work></rdf:RDF></metadata>
<desc
   id="desc2">Created with Fabric.js 4.6.0</desc>
<defs
   id="defs4">
</defs>
<rect
   x="0"
   y="0"
   width="100%"
   height="100%"
   fill="#FFFFFF"
   id="rect6" />
<g
   transform="matrix(0.96,0,0,0.96,267.07,170.4)"
   id="U">
<path
   style="opacity:1;fill:#26d07c;fill-rule:nonzero;stroke:#26d07c;stroke-width:0;stroke-linecap:butt;stroke-linejoin:miter;stroke-miterlimit:4;stroke-dasharray:none;stroke-dashoffset:0"
   transform="translate(-222.96,-263.99)"
   d="m 220.525,288.96 c -0.01,-2.35656 -1.33058,-4.51172 -3.426,-5.59 -0.18,-0.18 -0.541,-0.18 -0.721,-0.361 -1.57303,-0.73466 -2.98307,-1.77681 -4.147,-3.065 -2.66166,-2.8194 -4.0894,-6.58364 -3.967,-10.459 V 232.7 H 195.1 v 36.785 c -0.19621,7.08588 2.54438,13.93789 7.573,18.934 2.62857,2.67574 5.83676,4.71178 9.377,5.951 0.361,0.18 0.541,0.18 0.9,0.361 0.46581,0.14833 0.95502,0.20936 1.443,0.18 1.6274,0.11746 3.22757,-0.46517 4.39846,-1.60149 1.17089,-1.13632 1.80119,-2.71833 1.73254,-4.34851 m 30.294,-19.294 V 232.88 h -13.163 v 36.785 c 0.12229,3.87535 -1.30544,7.63954 -3.967,10.459 -1.21253,1.23342 -2.61207,2.2678 -4.147,3.065 -0.27116,0.0451 -0.52243,0.17091 -0.721,0.361 -2.09542,1.07828 -3.41628,3.23344 -3.426,5.59 -0.0137,1.63021 0.6278,3.19765 1.78058,4.35042 1.15277,1.15278 2.72021,1.79431 4.35042,1.78058 0.48829,0.0412 0.97981,-0.0201 1.443,-0.18 0.33385,-0.007 0.6537,-0.13552 0.9,-0.361 3.51892,-1.28287 6.71801,-3.31314 9.377,-5.951 5.00424,-5.08574 7.73612,-11.98094 7.573,-19.114"
   stroke-linecap="round"
   id="path8" />
</g>
<g
   transform="translate(469.33,211.09)"
   id="g13">
<path
   style="opacity:1;fill:#26d07c;fill-rule:nonzero;stroke:#26d07c;stroke-width:0;stroke-linecap:butt;stroke-linejoin:miter;stroke-miterlimit:4;stroke-dasharray:none;stroke-dashoffset:0"
   transform="translate(-153.98,-72.77)"
   d="M 103.7,144.98 V 130.5 h -1.63 v 7.42 c 0,3.62 -1.99,5.97 -5.25,5.97 -3.08,0 -4.89,-1.99 -4.89,-5.25 V 130.5 H 90.3 v 8.32 c 0,3.98 2.35,6.51 6.15,6.51 2.71,0 4.71,-1.09 5.61,-3.26 v 0 2.9 h 1.63 z m -24.79,-1.09 c -3.4,0 -6.15,-2.76 -6.15,-6.15 0,-3.39 2.75,-6.15 6.15,-6.15 3.4,0 6.15,2.76 6.15,6.15 v 0 c 0.03,3.37 -2.68,6.12 -6.05,6.15 H 78.9 m 7.42,1.09 V 130.5 h -1.44 v 3.08 0 c -1.36,-2.16 -3.79,-3.41 -6.33,-3.26 -4.34,0 -7.42,3.08 -7.42,7.6 -0.18,4.01 2.93,7.41 6.94,7.59 0.16,0 0.32,0 0.48,0 2.54,0.11 4.95,-1.13 6.33,-3.26 v 0 3.08 h 1.45 v -0.36 c 0,0 0,0 0,0 z m -26.06,-1.09 c -3.4,0 -6.15,-2.76 -6.15,-6.15 0,-3.39 2.76,-6.15 6.15,-6.15 3.39,0 6.15,2.76 6.15,6.15 v 0 c 0.03,3.37 -2.68,6.12 -6.05,6.15 h -0.11 m 7.6,1.09 v -21.9 h -1.63 v 10.13 0 c -1.09,-1.99 -3.26,-3.08 -6.15,-3.08 -4.34,0 -7.42,3.08 -7.42,7.6 -0.18,4.01 2.93,7.41 6.94,7.59 0.16,0 0.32,0 0.48,0 2.54,0.11 4.95,-1.13 6.34,-3.26 v 0 3.08 h 1.45 v -0.18 0 z M 43.42,130.14 c -2.36,-0.16 -4.58,1.13 -5.61,3.26 v 0 -3.08 h -1.45 v 14.48 h 1.63 v -7.24 c 0,-3.8 1.99,-5.97 5.25,-5.97 3.08,0 4.89,1.99 4.89,5.25 v 8.14 h 1.63 v -8.32 c -0.18,-3.98 -2.53,-6.51 -6.33,-6.51 M 24.25,143.9 c -3.4,0 -6.15,-2.76 -6.15,-6.15 0,-3.39 2.75,-6.15 6.15,-6.15 3.4,0 6.15,2.76 6.15,6.15 0.17,3.23 -2.3,5.98 -5.53,6.15 -0.21,0.01 -0.42,0.01 -0.63,0 m 7.6,1.09 v -14.48 h -1.45 v 3.08 0 c -1.35,-2.16 -3.78,-3.41 -6.33,-3.26 -4.34,0 -7.42,3.08 -7.42,7.6 -0.18,4.01 2.93,7.41 6.94,7.59 0.16,0 0.32,0 0.48,0 2.54,0.11 4.95,-1.13 6.33,-3.26 v 0 3.08 h 1.45 v -0.36 0 z m -17.37,0 v -1.63 H 1.81 V 124.18 H 0.18 v 20.63 h 14.3 v 0.18 0 z M 186.04,89.25 c -2.36,-0.16 -4.58,1.13 -5.61,3.26 v 0 -3.08 h -1.45 v 14.48 h 1.63 v -7.42 c 0,-3.8 1.99,-5.97 5.25,-5.97 3.08,0 4.89,1.99 4.89,5.25 v 8.14 h 1.63 v -8.32 c -0.18,-3.98 -2.53,-6.33 -6.33,-6.33 m -11.94,0 c -2.09,-0.17 -4.02,1.1 -4.71,3.08 v 0 -2.72 h -1.45 v 14.48 h 1.63 v -6.88 c 0,-4.16 1.45,-6.33 4.52,-6.33 0.85,-0.04 1.68,0.22 2.35,0.72 h 0.18 V 89.98 C 175.89,89.47 175,89.22 174.1,89.26 m -17.01,1.45 c 3.44,0 5.61,1.99 5.79,5.25 h -11.94 c 0.36,-3.09 3.04,-5.38 6.15,-5.25 m 7.42,6.51 v -0.9 c 0,-4.16 -2.9,-7.06 -7.42,-7.06 -4.04,-0.16 -7.44,2.99 -7.6,7.03 0,0.19 0,0.38 0,0.57 0,4.71 3.26,7.6 8.32,7.6 2.06,0.1 4.07,-0.61 5.61,-1.99 v -1.63 h -0.18 c -1.49,1.47 -3.52,2.26 -5.61,2.17 -3.98,0 -6.51,-2.17 -6.7,-5.79 h 13.57 c 0,0 0,0 0,0 z m -17.19,4.89 v 0 c -0.68,0.51 -1.51,0.76 -2.35,0.72 -1.81,0 -2.9,-1.27 -2.9,-3.26 v -8.69 h 5.07 v -1.45 h -4.89 v -3.8 h -1.27 l -0.36,3.8 h -2.9 v 1.45 h 2.9 v 8.87 c 0,2.9 1.63,4.71 4.34,4.71 0.88,0.03 1.75,-0.15 2.53,-0.54 v -1.81 h -0.18 z m -12.13,1.99 V 89.62 h -1.63 v 7.42 c 0,3.62 -1.99,5.97 -5.25,5.97 -3.08,0 -4.89,-1.99 -4.89,-5.25 v -8.14 h -1.63 v 8.32 c 0,3.98 2.35,6.51 6.15,6.51 2.71,0 4.71,-1.09 5.61,-3.26 v 0 2.9 h 1.63 c 0,0 0,0 0,0 z m -24.97,-1.27 c -3.4,0 -6.15,-2.75 -6.15,-6.15 0,-3.4 2.75,-6.15 6.15,-6.15 3.4,0 6.15,2.75 6.15,6.15 v 0 c 0.17,3.22 -2.3,5.98 -5.53,6.15 -0.21,0.01 -0.42,0.01 -0.63,0 m 7.6,1.27 V 89.62 h -1.45 v 3.08 0 c -1.36,-2.17 -3.79,-3.42 -6.33,-3.26 -4.34,0 -7.42,3.08 -7.42,7.6 -0.18,4.01 2.93,7.41 6.94,7.59 0.16,0 0.32,0 0.48,0 2.54,0.11 4.95,-1.13 6.33,-3.26 v 0 3.08 h 1.45 c 0,0 0,-0.36 0,-0.36 z m -20.09,0 h 1.63 V 82.2 H 97.72 Z M 88.85,89.26 c -3.26,0 -5.43,1.81 -5.43,4.34 0,2.53 1.27,3.62 5.25,3.8 3.26,0.18 4.16,0.9 4.16,2.53 0,1.81 -1.63,2.9 -3.98,2.9 -2.01,0.14 -3.98,-0.59 -5.43,-1.99 h -0.18 v 1.81 c 1.27,1.09 3.08,1.63 5.61,1.63 3.44,0 5.43,-1.63 5.43,-4.34 0,-2.71 -1.45,-3.98 -5.43,-4.16 -3.08,-0.18 -3.98,-0.72 -3.98,-2.35 0,-1.63 1.63,-2.9 3.8,-2.9 1.73,-0.14 3.43,0.45 4.71,1.63 h 0.18 v -1.81 c -1.42,-0.82 -3.06,-1.2 -4.71,-1.09 m -9.23,0 c -2.09,-0.17 -4.02,1.1 -4.71,3.08 v 0 -2.72 h -1.45 v 14.48 h 1.63 v -6.88 c 0,-4.16 1.45,-6.33 4.52,-6.33 0.85,-0.04 1.68,0.22 2.35,0.72 h 0.18 V 89.98 C 81.39,89.49 80.5,89.24 79.61,89.26 M 62.6,90.71 c 3.44,0 5.61,1.99 5.79,5.25 H 56.45 c 0.36,-3.09 3.04,-5.38 6.15,-5.25 m 7.24,6.51 v -0.9 c 0,-4.16 -2.9,-7.06 -7.42,-7.06 -4.04,-0.16 -7.44,2.99 -7.6,7.03 0,0.19 0,0.38 0,0.57 0,4.71 3.26,7.6 8.33,7.6 2.06,0.1 4.08,-0.61 5.61,-1.99 v -1.63 h -0.18 c -1.49,1.47 -3.52,2.26 -5.61,2.17 -3.98,0 -6.51,-2.17 -6.7,-5.79 h 13.57 c 0,0 0,0 0,0 z m -22.8,-7.96 c -3.26,0 -5.43,1.81 -5.43,4.34 0,2.53 1.27,3.62 5.25,3.8 3.26,0.18 4.16,0.9 4.16,2.53 0,1.81 -1.63,2.9 -3.98,2.9 -2.01,0.14 -3.98,-0.59 -5.43,-1.99 h -0.18 v 1.81 c 1.27,1.09 3.08,1.63 5.61,1.63 3.44,0 5.43,-1.63 5.43,-4.34 0,-2.71 -1.45,-3.98 -5.43,-4.16 -3.08,-0.18 -3.98,-0.72 -3.98,-2.35 0,-1.63 1.63,-2.9 3.8,-2.9 1.73,-0.14 3.43,0.45 4.7,1.63 h 0.18 v -1.81 c -1.42,-0.82 -3.06,-1.2 -4.71,-1.09 M 36.71,104.1 h 1.63 V 89.62 h -1.63 z m 0.72,-20.45 c -0.72,0 -1.09,0.54 -1.09,1.27 0.04,0.58 0.5,1.05 1.09,1.09 0.58,0.02 1.06,-0.42 1.09,-1 0,-0.03 0,-0.06 0,-0.09 0,-0.72 -0.36,-1.27 -1.09,-1.27 m -12.85,19.18 c -3.4,0 -6.15,-2.75 -6.15,-6.15 0,-3.4 2.76,-6.15 6.15,-6.15 3.39,0 6.15,2.75 6.15,6.15 v 0 c 0.17,3.22 -2.3,5.98 -5.53,6.15 -0.21,0.01 -0.42,0.01 -0.63,0 m 7.6,1.27 V 89.62 h -1.45 v 3.08 0 c -1.35,-2.17 -3.78,-3.42 -6.33,-3.26 -4.34,0 -7.42,3.08 -7.42,7.6 -0.18,4.01 2.93,7.41 6.94,7.59 0.16,0 0.32,0 0.48,0 2.54,0.11 4.95,-1.13 6.33,-3.26 v 0 3.08 h 1.45 v -0.36 z m -30.4,0 v -9.95 l 11.58,9.95 h 2.53 L 3.57,93.6 15.51,83.28 H 12.97 L 1.57,93.05 V 83.28 H 0 v 20.63 h 1.81 v 0.18 c 0,0 0,0 0,0 z m 306.2,-43.26 v 0 c -0.66,0.56 -1.49,0.88 -2.35,0.9 -1.34,0.07 -2.48,-0.96 -2.55,-2.3 0,-0.14 0,-0.28 0.01,-0.41 v -7.42 h 4.7 v -2.35 h -4.7 v -3.98 h -2.17 l -0.36,3.98 h -2.71 v 2.35 h 2.71 v 7.6 c 0,3.26 1.63,5.07 4.7,5.07 0.93,0.03 1.86,-0.15 2.71,-0.54 v -2.9 z m -17.2,-17.92 c -0.84,-0.06 -1.57,0.56 -1.63,1.4 0,0.08 0,0.15 0,0.23 0,0.9 0.73,1.63 1.63,1.63 0.9,0 1.63,-0.73 1.63,-1.63 v 0 c 0.06,-0.84 -0.56,-1.57 -1.4,-1.63 -0.08,0 -0.15,0 -0.23,0 m -6.15,0 c -0.9,0 -1.63,0.73 -1.63,1.63 0,0.9 0.73,1.63 1.63,1.63 0.9,0 1.63,-0.73 1.63,-1.63 0.18,-1.09 -0.54,-1.63 -1.63,-1.63 m 3.26,18.64 c -2.9,-0.06 -5.2,-2.45 -5.15,-5.35 0.05,-2.82 2.33,-5.09 5.15,-5.15 2.76,-0.04 5.03,2.16 5.07,4.91 0,0.11 0,0.22 0,0.33 -0.18,3.26 -2.17,5.25 -5.07,5.25 m 7.6,2.17 V 49.07 h -2.17 l -0.18,2.35 v 0 c -1.29,-1.79 -3.4,-2.82 -5.61,-2.72 -4.16,0 -7.24,3.26 -7.24,7.6 0,4.34 3.08,7.6 7.24,7.6 2.16,0.08 4.24,-0.86 5.61,-2.53 v 0 l 0.18,2.35 c 0,0 2.17,0 2.17,0 z m -17.37,-2.9 v 0 c -0.66,0.56 -1.49,0.88 -2.35,0.9 -1.34,0.07 -2.48,-0.96 -2.55,-2.3 0,-0.14 0,-0.28 0.01,-0.41 v -7.42 h 4.7 v -2.34 h -4.7 v -3.98 h -2.17 l -0.36,3.98 h -2.72 v 2.35 h 2.71 v 7.6 c 0,3.26 1.63,5.07 4.7,5.07 0.93,0.03 1.86,-0.15 2.71,-0.54 v -2.9 0 z m -15.2,2.9 h 2.71 V 49.07 h -2.71 z m 1.27,-20.99 c -1,0 -1.81,0.81 -1.81,1.81 0,1 0.81,1.81 1.81,1.81 1,0 1.81,-0.81 1.81,-1.81 v 0 c 0.06,-0.94 -0.66,-1.75 -1.6,-1.81 -0.07,0 -0.14,0 -0.21,0 m -9.77,5.97 c -3.44,0 -5.61,1.81 -5.61,4.7 0,2.72 1.45,3.8 5.25,4.16 2.53,0.18 3.44,0.72 3.44,1.99 0,1.27 -1.27,2.17 -3.26,2.17 -1.96,0.14 -3.88,-0.59 -5.25,-1.99 h -0.18 v 2.9 c 1.27,1.09 3.08,1.45 5.61,1.45 3.62,0 5.79,-1.81 5.79,-4.52 0,-2.9 -1.45,-4.16 -5.43,-4.34 -2.35,-0.18 -3.26,-0.54 -3.26,-1.63 0,-1.27 1.27,-2.17 3.08,-2.17 1.67,-0.14 3.33,0.45 4.52,1.63 h 0.18 v -2.9 c -1.45,-0.96 -3.15,-1.47 -4.89,-1.45 m -9.59,0 c -1.94,-0.18 -3.77,0.92 -4.52,2.72 v 0 -2.35 h -2.17 v 14.67 h 2.71 v -6.7 c 0,-3.8 1.27,-5.79 4.16,-5.79 0.85,-0.04 1.68,0.22 2.35,0.72 h 0.18 v -2.71 c -0.88,-0.27 -1.79,-0.45 -2.71,-0.54 m -17.37,2.53 c 2.71,0 4.52,1.45 4.89,3.98 h -9.77 c 0.32,-2.41 2.46,-4.15 4.89,-3.98 m 7.24,5.97 v -1.45 c 0,-4.16 -2.9,-7.06 -7.42,-7.06 -3.98,-0.22 -7.38,2.84 -7.6,6.82 -0.01,0.26 -0.01,0.52 0,0.78 0,4.52 3.26,7.6 8.51,7.6 2,0.13 3.99,-0.45 5.61,-1.63 v -2.72 h -0.18 c -1.5,1.32 -3.43,2.03 -5.43,1.99 -3.26,0 -5.43,-1.63 -5.79,-4.34 h 12.31 c 0,0 0,0 0,0 z m -21.9,6.52 6.15,-14.66 h -2.71 l -4.71,11.76 v 0 l -4.71,-11.76 h -2.9 l 6.16,14.66 h 2.71 z m -13.75,0 h 2.71 V 49.08 h -2.71 z m 1.27,-21 c -1,0 -1.81,0.81 -1.81,1.81 0,1 0.81,1.81 1.81,1.81 1,0 1.81,-0.81 1.81,-1.81 v 0 c 0.06,-0.94 -0.66,-1.75 -1.6,-1.81 -0.07,0 -0.14,0 -0.21,0 m -11.04,5.98 c -2.08,-0.17 -4.09,0.8 -5.25,2.53 v 0 -2.35 h -2.17 v 14.66 h 2.71 v -7.42 c 0,-3.08 1.63,-4.89 4.34,-4.89 2.53,0 3.98,1.63 3.98,4.34 v 8.14 h 2.71 v -8.51 c -0.36,-3.98 -2.53,-6.51 -6.33,-6.51 m -11.58,-5.79 h -2.9 v 11.76 c 0,4.34 -2.17,6.51 -5.97,6.51 -3.8,0 -5.97,-2.35 -5.97,-6.51 V 42.92 h -3.07 v 11.94 c 0,5.97 3.08,9.05 8.87,9.05 5.79,0 8.87,-3.08 8.87,-9.05 V 42.92 h 0.18 z m -34.93,8.33 c 2.71,0 4.52,1.45 4.89,3.98 h -9.78 c 0.42,-2.35 2.5,-4.04 4.89,-3.98 m 7.42,5.97 v -1.45 c 0,-4.16 -2.9,-7.06 -7.42,-7.06 -3.98,-0.22 -7.38,2.84 -7.6,6.82 -0.01,0.26 -0.01,0.52 0,0.78 0,4.52 3.26,7.6 8.51,7.6 2,0.12 3.99,-0.45 5.61,-1.63 v -2.72 h -0.18 c -1.5,1.32 -3.43,2.03 -5.43,1.99 -3.26,0 -5.43,-1.63 -5.79,-4.34 h 12.31 c 0,0 0,0 0,0 z m -23.71,-8.51 c -1.89,-0.13 -3.72,0.68 -4.89,2.17 v 0 -9.05 h -2.71 v 21.9 h 2.71 v -7.6 c 0,-3.08 1.63,-4.89 4.34,-4.89 2.53,0 3.98,1.63 3.98,4.34 v 8.14 h 2.71 v -8.51 c -0.18,-3.98 -2.53,-6.51 -6.15,-6.51 m -15.93,0 c -4.71,0 -7.78,3.08 -7.78,7.6 0.18,4.37 3.87,7.77 8.24,7.6 1.52,-0.06 3,-0.56 4.24,-1.44 v -2.72 h -0.18 c -1.07,1.29 -2.67,2.02 -4.34,1.99 -2.9,0.06 -5.3,-2.25 -5.35,-5.15 -0.06,-2.9 2.25,-5.3 5.15,-5.35 0.07,0 0.14,0 0.21,0 1.69,-0.11 3.33,0.64 4.34,1.99 h 0.18 v -2.9 c -1.29,-1.15 -2.98,-1.74 -4.71,-1.63 m -15.56,0 c -3.44,0 -5.61,1.81 -5.61,4.7 0,2.72 1.45,3.8 5.25,4.16 2.53,0.18 3.44,0.72 3.44,1.99 0,1.27 -1.27,2.17 -3.26,2.17 -1.96,0.14 -3.88,-0.59 -5.25,-1.99 h -0.18 v 2.9 c 1.27,1.09 3.08,1.45 5.61,1.45 3.62,0 5.79,-1.81 5.79,-4.52 0,-2.9 -1.45,-4.16 -5.43,-4.34 -2.35,-0.18 -3.26,-0.54 -3.26,-1.63 0,-1.27 1.27,-2.17 3.08,-2.17 1.67,-0.14 3.33,0.45 4.52,1.63 h 0.18 v -2.9 C 98.42,49.13 96.7,48.62 94.95,48.69 M 83.37,63.72 h 2.71 V 49.06 h -2.71 z m 1.45,-21 c -1,0 -1.81,0.81 -1.81,1.81 0,1 0.81,1.81 1.81,1.81 1,0 1.81,-0.81 1.81,-1.81 v 0 c -0.06,-0.97 -0.84,-1.75 -1.81,-1.81 m -11.04,5.97 c -2.08,-0.17 -4.09,0.8 -5.25,2.53 v 0 -2.35 h -2.35 v 14.66 h 2.71 v -7.41 c 0,-3.08 1.63,-4.89 4.34,-4.89 2.53,0 3.98,1.63 3.98,4.34 v 8.14 h 2.71 V 55.2 c -0.18,-3.98 -2.53,-6.51 -6.15,-6.51 m -17.37,0 c -1.89,-0.13 -3.72,0.68 -4.89,2.17 v 0 -9.05 h -2.72 v 21.9 h 2.72 v -7.6 c 0,-3.08 1.63,-4.89 4.34,-4.89 2.53,0 3.98,1.63 3.98,4.34 v 8.14 h 2.72 V 55.19 C 62.37,51.21 60.2,48.68 56.4,48.68 m -15.93,0 c -4.71,0 -7.78,3.08 -7.78,7.6 0.18,4.37 3.87,7.77 8.24,7.6 1.52,-0.06 3,-0.56 4.24,-1.44 v -2.72 h -0.18 c -1.07,1.29 -2.67,2.02 -4.34,1.99 -2.9,0.06 -5.3,-2.25 -5.35,-5.15 -0.06,-2.9 2.25,-5.3 5.15,-5.35 0.07,0 0.14,0 0.21,0 1.69,-0.11 3.33,0.63 4.34,1.99 h 0.18 v -2.9 c -0.9,-1.09 -2.53,-1.63 -4.7,-1.63 M 23.11,51.2 c 2.72,0 4.52,1.45 4.89,3.98 h -9.77 c 0.42,-2.35 2.5,-4.04 4.89,-3.98 m 7.42,5.97 v -1.45 c 0,-4.16 -2.9,-7.06 -7.42,-7.06 -3.98,-0.22 -7.38,2.84 -7.6,6.82 -0.01,0.26 -0.01,0.52 0,0.78 0,4.52 3.26,7.6 8.51,7.6 2,0.13 3.99,-0.45 5.61,-1.63 v -2.72 h -0.18 c -1.5,1.32 -3.43,2.03 -5.43,1.99 -3.26,0 -5.43,-1.63 -5.79,-4.34 h 12.31 c 0,0 0,0 0,0 z M 9.91,45.59 h 6.7 V 42.87 H 0 v 2.72 h 6.88 v 18.1 h 3.08 v -18.1 0 z M 281.23,9.61 c 2.71,0 4.52,1.45 4.89,3.98 h -9.77 c 0.38,-2.37 2.48,-4.09 4.89,-3.98 m 7.42,6.15 v -1.44 c 0,-4.16 -2.9,-7.06 -7.42,-7.06 -3.98,-0.22 -7.38,2.84 -7.6,6.82 -0.01,0.26 -0.01,0.52 0,0.78 0,4.52 3.26,7.6 8.51,7.6 2,0.12 3.99,-0.45 5.61,-1.63 v -2.71 h -0.18 c -1.5,1.32 -3.43,2.03 -5.43,1.99 -3.26,0 -5.43,-1.63 -5.79,-4.34 0,0 12.3,0 12.3,0 z M 264.77,7.25 c -1.89,-0.13 -3.72,0.68 -4.89,2.17 v 0 -9.04 h -2.71 v 21.9 h 2.72 V 14.5 c 0,-3.08 1.63,-4.89 4.34,-4.89 2.53,0 3.98,1.63 3.98,4.34 v 8.14 h 2.71 V 13.58 C 270.74,9.6 268.57,7.25 264.77,7.25 m -15.74,0 c -4.71,0 -7.78,3.08 -7.78,7.6 0.18,4.37 3.87,7.77 8.24,7.6 1.52,-0.06 3,-0.56 4.25,-1.44 v -2.9 h -0.18 c -1.07,1.29 -2.67,2.02 -4.34,1.99 -2.9,0.06 -5.3,-2.25 -5.35,-5.15 -0.06,-2.9 2.25,-5.3 5.15,-5.35 0.07,0 0.14,0 0.21,0 1.69,-0.11 3.33,0.64 4.34,1.99 h 0.18 V 8.69 C 252.66,7.6 251.04,7.24 249.04,7.24 m -15.56,0 c -3.44,0 -5.61,1.81 -5.61,4.7 0,2.72 1.45,3.8 5.25,4.16 2.53,0.18 3.44,0.72 3.44,1.99 0,1.27 -1.27,2.17 -3.26,2.17 -1.96,0.14 -3.88,-0.59 -5.25,-1.99 h -0.18 v 2.9 c 1.27,1.09 3.08,1.45 5.61,1.45 3.62,0 5.79,-1.81 5.79,-4.52 0,-2.9 -1.45,-4.16 -5.43,-4.34 -2.35,-0.18 -3.26,-0.54 -3.26,-1.63 0,-1.27 1.27,-2.17 3.08,-2.17 1.67,-0.14 3.33,0.45 4.52,1.63 h 0.18 v -2.9 c -1.4,-1.07 -3.13,-1.58 -4.89,-1.45 m -11.58,14.84 h 2.71 V 7.44 h -2.71 v 14.65 z m 1.27,-20.81 c -1,0 -1.81,0.81 -1.81,1.81 0,1 0.81,1.81 1.81,1.81 1,0 1.81,-0.81 1.81,-1.81 v 0 c 0.06,-0.94 -0.66,-1.75 -1.6,-1.81 -0.07,0 -0.14,0 -0.21,0 m -17.19,20.81 h 12.67 v -2.35 h -9.05 L 218.46,9.59 V 7.43 h -12.13 v 2.35 h 8.51 l -9.05,10.13 v 2.17 z m -6.15,-0.01 h 2.71 V 0.19 h -2.71 v 21.9 z M 191.13,1.26 c -0.9,0 -1.63,0.73 -1.63,1.63 0,0.9 0.73,1.63 1.63,1.63 0.9,0 1.63,-0.73 1.63,-1.63 v 0 c 0.06,-0.84 -0.56,-1.57 -1.4,-1.63 -0.08,0 -0.15,0 -0.23,0 m -6.15,0 c -0.9,0.02 -1.61,0.77 -1.59,1.67 0.02,0.87 0.72,1.57 1.59,1.59 0.84,0.06 1.56,-0.57 1.62,-1.41 0,-0.07 0,-0.14 0,-0.21 0.18,-0.9 -0.54,-1.63 -1.63,-1.63 m 3.26,18.82 c -2.9,-0.06 -5.2,-2.45 -5.15,-5.35 0.05,-2.82 2.33,-5.09 5.15,-5.15 2.9,0.06 5.2,2.45 5.15,5.35 -0.05,2.82 -2.33,5.09 -5.15,5.15 m 7.6,1.99 V 7.44 h -2.17 l -0.18,2.35 v 0 c -1.29,-1.8 -3.4,-2.82 -5.61,-2.72 -4.16,0 -7.24,3.26 -7.24,7.6 0,4.34 3.08,7.6 7.24,7.6 2.16,0.08 4.24,-0.86 5.61,-2.53 v 0 l 0.18,2.35 c 0,0 2.17,0 2.17,0 z M 177.17,0.02 c -3.08,0 -4.89,1.81 -4.89,5.25 v 2.35 h -2.71 v 2.35 h 2.71 v 12.31 h 2.71 V 9.97 h 4.71 V 7.62 h -4.71 V 5.27 c 0,-1.81 0.9,-2.9 2.53,-2.9 0.85,-0.07 1.69,0.19 2.35,0.72 h 0.18 V 0.56 c -0.9,-0.43 -1.9,-0.61 -2.9,-0.54 M 154.72,11.79 V 4.01 h 5.79 c 3.08,0 4.52,1.27 4.52,3.8 0,2.53 -1.45,3.98 -4.52,3.98 z M 151.64,1.48 v 20.63 h 2.9 v -7.6 h 5.97 c 4.89,0 7.42,-2.17 7.42,-6.51 0,-4.34 -2.53,-6.51 -7.42,-6.51 0,0 -8.87,0 -8.87,0 z m -12.49,13.57 h 8.69 v -2.72 h -8.69 z m -11.04,5.07 c -2.9,-0.06 -5.2,-2.45 -5.15,-5.35 0.06,-2.82 2.33,-5.09 5.15,-5.15 2.9,0.06 5.2,2.45 5.15,5.35 -0.05,2.82 -2.33,5.09 -5.15,5.15 m 7.6,1.99 V 0.2 H 133 v 9.23 0 c -1.09,-1.45 -2.9,-2.17 -5.25,-2.17 -4.16,0 -7.24,3.26 -7.24,7.6 0,4.34 3.08,7.6 7.24,7.6 2.16,0.08 4.24,-0.86 5.61,-2.53 v 0 l 0.18,2.35 h 2.17 V 22.1 Z M 111.64,7.27 c -2.08,-0.17 -4.09,0.8 -5.25,2.53 v 0 -2.35 h -2.17 v 14.66 h 2.71 v -7.6 c 0,-3.08 1.63,-4.89 4.34,-4.89 2.53,0 3.98,1.63 3.98,4.34 v 8.14 h 2.71 V 13.59 C 117.6,9.61 115.25,7.26 111.63,7.26 M 92.27,20.11 c -2.9,-0.06 -5.2,-2.45 -5.15,-5.35 0.06,-2.82 2.33,-5.09 5.15,-5.15 2.9,0.06 5.2,2.45 5.15,5.35 -0.06,2.82 -2.33,5.09 -5.15,5.15 m 7.6,1.99 V 7.44 H 97.7 l -0.18,2.35 v 0 c -1.29,-1.8 -3.4,-2.82 -5.61,-2.72 -4.16,0 -7.24,3.26 -7.24,7.6 0,4.34 3.08,7.6 7.24,7.6 2.16,0.08 4.24,-0.86 5.61,-2.53 v 0 l 0.18,2.35 c 0,0 2.17,0 2.17,0 z m -21.17,0 h 2.71 V 0.2 H 78.7 c 0,0 0,21.9 0,21.9 z M 68.93,7.26 c -2.08,-0.17 -4.09,0.8 -5.25,2.53 v 0 -2.35 H 61.51 V 22.1 h 2.71 v -7.6 c 0,-3.08 1.63,-4.89 4.34,-4.89 2.53,0 3.98,1.63 3.98,4.34 v 8.14 h 2.71 V 13.58 C 74.89,9.6 72.72,7.25 68.92,7.25 m -14.3,14.84 h 2.72 V 7.44 H 54.62 V 22.1 Z M 56.07,1.28 c -1,0 -1.81,0.81 -1.81,1.81 0,1 0.81,1.81 1.81,1.81 1,0 1.81,-0.81 1.81,-1.81 v 0 c 0,-1 -0.81,-1.81 -1.81,-1.81 M 44.13,9.6 c 2.72,0 4.52,1.45 4.89,3.98 h -9.77 c 0.49,-2.31 2.52,-3.97 4.89,-3.98 m 7.42,6.15 V 14.3 c 0,-4.16 -2.9,-7.06 -7.42,-7.06 -3.98,-0.22 -7.38,2.84 -7.6,6.82 -0.01,0.26 -0.01,0.52 0,0.78 0,4.52 3.26,7.6 8.51,7.6 2,0.12 3.99,-0.45 5.61,-1.63 V 18.1 h -0.18 c -1.5,1.32 -3.44,2.03 -5.43,1.99 -3.26,0 -5.43,-1.63 -5.79,-4.34 0,0 12.31,0 12.3,0 z M 27.87,7.26 C 25.98,7.13 24.15,7.94 22.98,9.43 v 0 -9.05 h -2.72 v 21.9 h 2.71 V 14.5 c 0,-3.08 1.63,-4.89 4.34,-4.89 2.53,0 3.98,1.63 3.98,4.34 v 8.14 h 2.72 V 13.58 C 33.83,9.6 31.48,7.25 27.86,7.25 M 3.08,11.6 V 4 h 5.97 c 3.08,0 4.52,1.27 4.52,3.8 0,2.53 -1.45,3.8 -4.52,3.8 z m 0,10.5 v -7.96 h 5.61 l 5.07,7.96 h 3.62 l -5.43,-8.14 c 3.26,-0.72 4.71,-2.72 4.71,-6.15 0,-4.16 -2.53,-6.33 -7.42,-6.33 H 0.18 v 20.63 c 0,0 2.9,0 2.9,0 z"
   stroke-linecap="round"
   id="path11" />
</g>
<g
   transform="matrix(0.96,0,0,0.96,86.87,250.59)"
   id="R">
<path
   style="opacity:1;fill:#26d07c;fill-rule:nonzero;stroke:#26d07c;stroke-width:0;stroke-linecap:butt;stroke-linejoin:miter;stroke-miterlimit:4;stroke-dasharray:none;stroke-dashoffset:0"
   transform="translate(-120.95,-219.09)"
   d="m 93,187.9 h 32.458 c 5.65346,-0.18908 11.13418,1.9642 15.147,5.951 3.91493,3.83839 6.06871,9.12457 5.951,14.606 0.0213,2.38704 -0.34411,4.76178 -1.082,7.032 -0.56384,1.89701 -1.47979,3.67091 -2.7,5.229 -0.99013,1.22566 -2.0755,2.37122 -3.246,3.426 -0.83057,0.75097 -1.7352,1.41571 -2.7,1.984 l -1.082,0.541 13.154,23.622 h -14.066 l -11.9,-21.819 h -16.59 v 21.819 H 93 Z m 38.048,14.426 c -1.5726,-1.57305 -3.72806,-2.42205 -5.951,-2.344 h -18.753 v 16.409 H 125.1 c 2.22294,0.0781 4.3784,-0.77095 5.951,-2.344 1.56785,-1.50144 2.42058,-3.60052 2.344,-5.77 0.078,-2.22294 -0.77095,-4.3784 -2.344,-5.951"
   stroke-linecap="round"
   id="path15" />
</g>
<g
   transform="matrix(0.96,0,0,0.96,146.94,250.59)"
   id="P">
<path
   style="opacity:1;fill:#26d07c;fill-rule:nonzero;stroke:#26d07c;stroke-width:0;stroke-linecap:butt;stroke-linejoin:miter;stroke-miterlimit:4;stroke-dasharray:none;stroke-dashoffset:0"
   transform="translate(-27.86,-31.2)"
   d="m 44.13,39.58 c 1.67,-0.82 3.2,-1.87 4.63,-3.13 0.22,-0.19 0.44,-0.36 0.65,-0.56 2.13,-2.02 3.76,-4.47 4.83,-7.14 0.22,-0.54 0.42,-1.08 0.59,-1.64 0.04,-0.13 0.06,-0.26 0.1,-0.39 0.15,-0.51 0.29,-1.03 0.39,-1.56 0.25,-1.24 0.37,-2.52 0.38,-3.8 0,-0.15 0.02,-0.3 0.02,-0.45 0,-0.11 -0.01,-0.21 -0.01,-0.32 0,-2.04 -0.29,-4.04 -0.88,-5.95 -1,-3.3 -2.82,-6.21 -5.42,-8.7 C 47.28,3.9 44.86,2.4 42.17,1.41 39.65,0.47 36.96,0 34.23,0.02 34.06,0.02 33.9,0 33.72,0 H 0 v 62.4 h 13.16 v -0.19 0 -20.37 h 20.56 c 2.98,0.1 5.92,-0.43 8.64,-1.49 0.39,-0.15 0.75,-0.32 1.13,-0.49 0.21,-0.1 0.43,-0.18 0.64,-0.28 z M 42.54,21.54 c -0.1,2.09 -0.95,4.14 -2.54,5.73 -0.05,0.05 -0.09,0.1 -0.14,0.14 -1.8,1.62 -3.97,2.52 -6.67,2.52 H 13.16 V 12.27 h 20.02 c 0.09,0 0.18,0 0.28,0 1.03,0.02 1.98,0.15 2.86,0.41 1.32,0.42 2.53,1.13 3.54,2.12 0.05,0.05 0.1,0.1 0.15,0.15 0.11,0.11 0.21,0.22 0.31,0.33 0.1,0.11 0.2,0.23 0.3,0.35 0.08,0.1 0.16,0.2 0.24,0.31 0.14,0.18 0.27,0.37 0.39,0.56 0,0 0,0 0,0 0.76,1.21 1.18,2.56 1.29,3.93 0,0.08 0,0.17 0.01,0.26 0,0.18 0.02,0.37 0.01,0.55 0,0.1 0,0.2 -0.01,0.31 z"
   stroke-linecap="round"
   id="path18" />
</g>
<g
   transform="matrix(0.96,0,0,0.96,207,170.4)"
   id="T">
<path
   style="opacity:1;fill:#26d07c;fill-rule:nonzero;stroke:#26d07c;stroke-width:0;stroke-linecap:butt;stroke-linejoin:miter;stroke-miterlimit:4;stroke-dasharray:none;stroke-dashoffset:0"
   transform="translate(-188.06,-264)"
   d="m 215.919,232.8 v 12.081 H 194.641 V 295.19 H 181.478 V 244.881 H 160.2 V 232.8 Z"
   stroke-linecap="round"
   id="path21" />
</g>
</svg>
